<?xml version="1.0" encoding="UTF-8" standalone="no"?>
<!-- Created with Inkscape (http://www.inkscape.org/) -->

<svg
   width="84.801552mm"
   height="84.801552mm"
   viewBox="0 0 84.801552 84.801552"
   version="1.1"
   id="svg5"
   inkscape:version="1.1.1 (3bf5ae0d25, 2021-09-20)"
   sodipodi:docname="s3sd-file-icon.svg"
   xmlns:inkscape="http://www.inkscape.org/namespaces/inkscape"
   xmlns:sodipodi="http://sodipodi.sourceforge.net/DTD/sodipodi-0.dtd"
   xmlns="http://www.w3.org/2000/svg"
   xmlns:svg="http://www.w3.org/2000/svg">
  <sodipodi:namedview
     id="namedview7"
     pagecolor="#ffffff"
     bordercolor="#666666"
     borderopacity="1.0"
     inkscape:pageshadow="2"
     inkscape:pageopacity="0.0"
     inkscape:pagecheckerboard="0"
     inkscape:document-units="mm"
     showgrid="true"
     inkscape:zoom="1.471329"
     inkscape:cx="72.383539"
     inkscape:cy="77.480971"
     inkscape:window-width="2400"
     inkscape:window-height="1494"
     inkscape:window-x="2869"
     inkscape:window-y="-11"
     inkscape:window-maximized="1"
     inkscape:current-layer="g923"
     fit-margin-top="0"
     fit-margin-left="0"
     fit-margin-right="0"
     fit-margin-bottom="0">
    <inkscape:grid
       type="xygrid"
       id="grid824"
       enabled="false"
       originx="-58.208334"
       originy="-148.03179" />
  </sodipodi:namedview>
  <defs
     id="defs2" />
  <g
     inkscape:label="Layer 1"
     inkscape:groupmode="layer"
     id="layer1"
     transform="translate(-58.208333,-148.03178)">
    <g
       id="g923"
       transform="translate(15.115112)">
      <path
         style="fill:#000000;fill-opacity:1;stroke:none;stroke-width:0.252556px;stroke-linecap:butt;stroke-linejoin:miter;stroke-opacity:1"
         d="m 68.791666,232.83334 -10.583332,-9.64302 21.166666,-9.64301 10e-7,-24.10753 10.583333,9.64301 -10e-7,24.10754 z"
         id="path859"
         sodipodi:nodetypes="ccccccc" />
      <path
         style="fill:none;stroke:none;stroke-width:0.252556px;stroke-linecap:butt;stroke-linejoin:miter;stroke-opacity:1"
         d="m 79.375003,165.33225 10.58333,9.64302 -21.16667,9.64301 v 24.10752 l -10.58333,-9.64301 v -24.10753 z"
         id="path859-4"
         sodipodi:nodetypes="ccccccc" />
      <path
         style="fill:#000000;fill-opacity:1;stroke:none;stroke-width:0.262143;stroke-linecap:round"
         d="m 63.561936,203.64697 -4.980959,-4.53992 5.019254,-2.28543 5.019252,-2.28544 v 6.82536 c 0,3.75394 -0.01722,6.82535 -0.03829,6.82535 -0.02106,0 -2.279727,-2.04296 -5.019254,-4.53992 z"
         id="path3470" />
      <path
         style="fill:#000000;fill-opacity:1;stroke:none;stroke-width:0.262143;stroke-linecap:round"
         d="m 69.068957,201.32619 v -6.99721 l 5.019109,-2.28536 5.019111,-2.28537 v 7.02972 7.02972 l -4.943316,2.25286 c -2.718827,1.23907 -4.977426,2.25286 -5.019111,2.25286 -0.04169,0 -0.07579,-3.14875 -0.07579,-6.99722 z"
         id="path3509" />
      <path
         style="fill:#e8904e;fill-opacity:1;stroke:none;stroke-width:0.252556px;stroke-linecap:butt;stroke-linejoin:miter;stroke-opacity:1"
         d="m 58.208333,174.97526 10.583333,9.64301 21.166666,-9.64301 -10.583333,-9.64301 z"
         id="path3741" />
      <path
         style="fill:#6f350e;fill-opacity:1;stroke:none;stroke-width:0.252556px;stroke-linecap:butt;stroke-linejoin:miter;stroke-opacity:1"
         d="m 79.374999,189.43978 v 24.10752 l 10.583333,9.64302 v -24.10754 z"
         id="path4389" />
      <path
         style="fill:#954713;fill-opacity:1;stroke:none;stroke-width:0.252556px;stroke-linecap:butt;stroke-linejoin:miter;stroke-opacity:1"
         d="m 68.791666,208.7258 21.166666,-9.64302 -10.583333,-9.643 -21.166666,9.643 z"
         id="path4321" />
      <path
         style="fill:#c05c19;fill-opacity:1;stroke:none;stroke-width:0.252556px;stroke-linecap:butt;stroke-linejoin:miter;stroke-opacity:1"
         d="m 58.208333,176.18064 v 22.90214 l 10.583333,9.64302 v -24.10753 l -10.583333,-9.64301 z"
         id="path4253" />
      <path
         style="fill:#4a2309;fill-opacity:1;stroke:none;stroke-width:0.252556px;stroke-linecap:butt;stroke-linejoin:miter;stroke-opacity:1"
         d="m 79.374999,213.5473 -21.166666,9.64302 10.583333,9.64301 21.166666,-9.64301 z"
         id="path4457"
         inkscape:export-filename="C:\Users\harpe\Documents\LiminalCode\LiminalCode\SSS-ML\vsextension\S3ML-Support-Extension-for-VSCode\s3sd-file-icon.png"
         inkscape:export-xdpi="38.338921"
         inkscape:export-ydpi="38.338921" />
      <path
         style="fill:#c05c19;fill-opacity:1;stroke:none;stroke-width:0.126277px;stroke-linecap:butt;stroke-linejoin:miter;stroke-opacity:1"
         d="m 107.48799,148.63446 v 11.45108 l 5.29166,4.8215 v -12.05376 l -5.29166,-4.8215 z"
         id="path4253-0" />
      <path
         style="fill:#e8904e;fill-opacity:1;stroke:none;stroke-width:0.126277px;stroke-linecap:butt;stroke-linejoin:miter;stroke-opacity:1"
         d="m 96.904651,152.85329 5.291659,4.8215 10.58334,-4.8215 -5.29167,-4.82151 z"
         id="path3741-6" />
      <path
         style="fill:#954713;fill-opacity:1;stroke:none;stroke-width:0.126277px;stroke-linecap:butt;stroke-linejoin:miter;stroke-opacity:1"
         d="m 96.904661,164.90706 5.291659,4.82149 10.58334,-4.8215 -5.29167,-4.82151 z"
         id="path3741-6-8" />
      <path
         style="fill:#4a2309;fill-opacity:1;stroke:none;stroke-width:0.126277px;stroke-linecap:butt;stroke-linejoin:miter;stroke-opacity:1"
         d="m 96.904661,176.96082 5.291659,4.8215 10.58334,-4.8215 -5.29167,-4.82151 z"
         id="path3741-6-8-7" />
      <path
         style="fill:#13955f;fill-opacity:1;stroke:none;stroke-width:0.252556px;stroke-linecap:butt;stroke-linejoin:miter;stroke-opacity:1"
         d="m 102.19632,162.49629 5.29166,4.82151 5.29167,-2.41076 -5.29167,-4.8215 z"
         id="path11300" />
      <path
         style="fill:#6f350e;fill-opacity:1;stroke:none;stroke-width:0.126277px;stroke-linecap:butt;stroke-linejoin:miter;stroke-opacity:1"
         d="m 107.48798,160.68823 v 11.45107 l 5.29166,4.82151 v -12.05377 l -5.29166,-4.8215 z"
         id="path4253-0-5" />
      <path
         style="fill:#954713;fill-opacity:1;stroke:none;stroke-width:0.252556px;stroke-linecap:butt;stroke-linejoin:miter;stroke-opacity:1"
         d="m 99.550481,163.70167 5.291669,4.8215 7.9375,-3.61613 -5.29167,-4.8215 z"
         id="path12491" />
    </g>
  </g>
</svg>
